<svg id="Camada_1" data-name="Camada 1" xmlns="http://www.w3.org/2000/svg" xmlns:xlink="http://www.w3.org/1999/xlink" viewBox="0 0 454.19 698.26"><defs><style>.cls-1{stroke:#211915;stroke-miterlimit:10;fill:url(#Gradiente_sem_nome_6);}.cls-2{fill:#fff;}</style><linearGradient id="Gradiente_sem_nome_6" x1="-196.88" y1="75.27" x2="473.18" y2="620.12" gradientUnits="userSpaceOnUse"><stop offset="0.04" stop-color="#e6d610"/><stop offset="0.53" stop-color="#5fa13e"/><stop offset="0.89" stop-color="#1f2a22"/></linearGradient></defs><title>fotoatualizado</title><path class="cls-1" d="M113.49,71.38S236.2,81,366.21,179.68c104.32,117.24,130.35,206.38,151.6,293.79S498.42,744.1,338.54,764.17c-97.61,12.25-159.3-20.81-202.94-68.64C107.76,665,85.32,638.88,72,593.52c-7.92-101.88.38-183.38,120.77-269.18C244.64,255.89,190.46,168.18,113.49,71.38Z" transform="translate(-69.33 -70.79)"/><path class="cls-2" d="M229.67,175.83c-1.55-1.79,207.17,317.47-96.8,523.35,65.95,50.46,79.7,72.45,205.89,69.63C350,733.22,447.6,427.71,229.67,175.83Z" transform="translate(-69.33 -70.79)"/><path class="cls-2" d="M330,346.09s72.77-2,110,57.82c-40.61,58.47-68.93,58.47-79.25,57.46-36.43-3.58-12.12,1-12.12,1Z" transform="translate(-69.33 -70.79)"/></svg>