<svg id="Camada_1" data-name="Camada 1" xmlns="http://www.w3.org/2000/svg" viewBox="0 0 454.19 698.26"><defs><linearGradient id="Gradiente_sem_nome_6" x1="-196.88" y1="75.27" x2="473.18" y2="620.12" gradientUnits="userSpaceOnUse"><stop offset=".04" stop-color="#e6d610"/><stop offset=".53" stop-color="#5fa13e"/><stop offset=".89" stop-color="#1f2a22"/></linearGradient><style>.cls-2{fill:#fff}</style></defs><path d="M113.49 71.38S236.2 81 366.21 179.68c104.32 117.24 130.35 206.38 151.6 293.79s-19.39 270.63-179.27 290.7c-97.61 12.25-159.3-20.81-202.94-68.64C107.76 665 85.32 638.88 72 593.52c-7.92-101.88.38-183.38 120.77-269.18 51.87-68.45-2.31-156.16-79.28-252.96z" transform="translate(-69.33 -70.79)" stroke="#211915" stroke-miterlimit="10" fill="url(#Gradiente_sem_nome_6)"/><path class="cls-2" d="M229.67 175.83c-1.55-1.79 207.17 317.47-96.8 523.35 65.95 50.46 79.7 72.45 205.89 69.63C350 733.22 447.6 427.71 229.67 175.83z" transform="translate(-69.33 -70.79)"/><path class="cls-2" d="M330 346.09s72.77-2 110 57.82c-40.61 58.47-68.93 58.47-79.25 57.46-36.43-3.58-12.12 1-12.12 1z" transform="translate(-69.33 -70.79)"/></svg>